<svg width="541" height="72" viewBox="0 0 541 72" fill="none" xmlns="http://www.w3.org/2000/svg">
<path d="M12.3471 1.09726C14.3585 2.26363 15.9723 3.93874 16.6612 6.18671C16.7569 7.31866 16.7569 7.31866 16.7606 8.5525C16.766 8.95885 16.7713 9.3652 16.7768 9.78386C16.6541 11.0306 16.2695 11.7648 15.707 12.8666C15.8275 13.9634 16.2694 14.5071 17.0287 15.2812C17.2401 15.4987 17.4515 15.7162 17.6692 15.9402C18.0141 16.2867 18.0141 16.2867 18.366 16.6402C18.7197 16.9987 18.7197 16.9987 19.0806 17.3645C19.5799 17.8686 20.0806 18.3715 20.5824 18.8731C21.3507 19.6436 22.1111 20.4213 22.8714 21.1997C23.3572 21.6883 23.8435 22.1764 24.3302 22.664C24.5575 22.8982 24.7849 23.1325 25.0192 23.3738C25.2345 23.5862 25.4499 23.7987 25.6718 24.0175C25.8595 24.2065 26.0471 24.3955 26.2404 24.5903C26.8416 25.0366 26.8416 25.0366 27.6637 24.8758C28.472 24.623 29.1169 24.2962 29.8421 23.8606C32.1285 22.4904 34.0498 22.3239 36.6612 22.3695C37.724 22.3827 38.7868 22.3958 39.8818 22.4093C40.8265 20.1 41.7713 17.7906 42.7446 15.4113C42.3247 15.2014 41.9049 14.9914 41.4723 14.7751C39.5864 12.8433 38.8842 10.9565 38.7685 8.27417C38.8344 5.89855 39.5058 4.38715 41.1343 2.67653C43.3136 0.666454 45.0413 0.306914 47.9906 0.365408C50.7358 0.600798 52.2165 1.7938 53.9958 3.82837C55.4049 5.91669 55.3778 8.20873 55.1501 10.64C54.5038 13.3604 52.6833 14.7874 50.4782 16.3258C48.7925 16.8983 47.0588 16.9256 45.2893 17.0018C44.8635 18.0481 44.44 19.0954 44.017 20.1429C43.8349 20.5901 43.8349 20.5901 43.6492 21.0462C43.5344 21.3312 43.4196 21.6162 43.3013 21.9098C43.1947 22.173 43.0881 22.4362 42.9782 22.7074C42.7091 23.3474 42.7091 23.3474 42.7446 23.9998C43.2296 24.4045 43.2296 24.4045 43.8579 24.8149C46.6318 26.8425 49.1287 29.739 49.7426 33.2244C49.7642 33.9398 49.7696 34.6558 49.7625 35.3715C49.7596 35.7438 49.7568 36.1161 49.7538 36.4997C49.7483 36.9253 49.7483 36.9253 49.7426 37.3595C50.1116 37.4174 50.1116 37.4174 50.4881 37.4763C52.3887 37.7821 54.2455 38.1314 56.1044 38.6319C56.1503 38.3695 56.1963 38.1071 56.2436 37.8367C57.1271 35.8576 58.8966 34.3777 60.8956 33.5425C63.2078 32.8388 65.4095 33.1149 67.5557 34.1786C69.4766 35.525 71.2388 37.2059 71.6908 39.5862C71.9346 42.3822 71.9269 44.6663 70.1004 46.9023C68.6174 48.5015 66.9698 49.6335 64.7475 49.8545C61.8693 49.9413 59.7086 49.4585 57.5706 47.4726C56.2176 45.9652 55.3753 44.4822 55.3688 42.4291C55.418 41.8091 55.418 41.8091 55.4682 41.1766C55.1861 41.1898 54.904 41.2029 54.6134 41.2164C52.758 41.2241 50.9303 40.8476 49.1064 40.5404C49.0019 40.7828 48.8973 41.0251 48.7896 41.2748C47.6606 43.7254 46.214 46.2809 43.6989 47.5384C44.3742 49.3715 45.314 51.0816 46.2113 52.813C46.4008 53.1851 46.4008 53.1851 46.594 53.5648C46.7099 53.7895 46.8258 54.0143 46.9452 54.2458C47.1979 54.8545 47.1979 54.8545 47.1979 55.8088C47.5128 55.7038 47.8277 55.5988 48.1522 55.4907C50.6955 55.2089 52.6436 55.3413 54.7811 56.8115C56.5433 58.3188 57.84 60.1455 58.131 62.4825C58.1882 65.2427 57.7885 67.3511 55.8882 69.437C53.7263 71.3971 51.8046 71.8791 48.9176 71.8003C46.4609 71.6031 44.9931 70.7761 43.3063 68.9698C41.8237 66.9755 41.1609 64.6228 41.4723 62.1706C42.0795 59.9838 42.9402 58.5605 44.6532 57.0811C44.1421 55.3457 43.3648 53.7952 42.5458 52.1905C42.4122 51.926 42.2785 51.6616 42.1408 51.3891C41.813 50.7411 41.4842 50.0938 41.1542 49.447C40.7884 49.497 40.4227 49.547 40.0458 49.5986C35.5299 50.1566 31.7017 50.0164 27.9534 47.1209C27.7665 46.9582 27.5795 46.7954 27.3868 46.6277C26.7725 46.1491 26.7725 46.1491 25.5678 46.2661C24.7244 46.8473 24.7244 46.8473 23.858 47.6378C23.5214 47.9292 23.1842 48.2199 22.8466 48.5101C22.581 48.7394 22.581 48.7394 22.3101 48.9733C21.3492 49.787 20.3575 50.5609 19.365 51.3356C19.0849 51.5551 19.0849 51.5551 18.7992 51.779C17.8818 52.4961 16.9599 53.206 16.0251 53.9002C16.128 54.1733 16.2309 54.4464 16.3369 54.7278C17.0202 57.0054 17.0356 59.7329 16.0337 61.9258C14.7467 64.1427 13.0871 65.5346 10.6175 66.3058C7.86851 66.7206 5.57243 66.3527 3.30144 64.7153C1.75301 63.3047 0.562545 61.6273 0.311893 59.5091C0.332108 56.4836 0.463864 54.4949 2.54598 52.2303C4.27892 50.6238 6.01033 49.7239 8.39089 49.606C10.0692 49.674 11.3799 50.2569 12.8441 51.0374C13.268 51.2501 13.692 51.4623 14.1165 51.6736C16.5459 49.7795 18.961 47.8692 21.3531 45.9281C21.5728 45.7501 21.7926 45.572 22.0191 45.3886C22.3266 45.1384 22.3266 45.1384 22.6403 44.8831C22.8219 44.7355 23.0034 44.5878 23.1905 44.4357C23.7014 44.015 23.7014 44.015 24.2954 43.4033C24.1843 43.1921 24.0732 42.9809 23.9587 42.7634C23.8139 42.4825 23.6692 42.2016 23.5201 41.9122C23.3761 41.6354 23.2322 41.3587 23.0839 41.0735C21.9488 38.5242 21.9672 34.9443 22.6267 32.2415C23.1053 31.0233 23.7204 29.9293 24.3948 28.8109C25.0002 27.9118 25.0002 27.9118 24.8688 27.1899C24.5638 26.4189 24.1902 25.9938 23.6098 25.4022C23.2928 25.076 23.2928 25.076 22.9693 24.7432C22.7394 24.5122 22.5094 24.2812 22.2725 24.0432C22.0367 23.8042 21.8009 23.5652 21.5579 23.319C21.0586 22.8148 20.558 22.312 20.0562 21.8103C19.2878 21.0399 18.5274 20.2621 17.7671 19.4837C17.2813 18.9952 16.7951 18.507 16.3084 18.0194C16.081 17.7852 15.8536 17.551 15.6194 17.3097C15.404 17.0972 15.1886 16.8848 14.9667 16.6659C14.7791 16.4769 14.5914 16.2879 14.3981 16.0932C13.7958 15.646 13.7958 15.646 12.9671 15.8093C12.216 16.0166 12.216 16.0166 11.6165 16.378C9.86987 17.1621 7.20423 16.9388 5.36406 16.4874C3.28615 15.5629 1.94629 13.7592 0.776603 11.8726C0.000547588 9.76267 0.0041156 6.86086 0.895887 4.79506C3.3353 0.75261 7.97369 -0.894933 12.3471 1.09726Z" fill="#F5E7B8"/>
<path d="M274.281 10.021C277.909 10.021 281.537 10.021 285.274 10.021C287.141 13.6227 288.717 17.2192 290.116 21.0242C290.316 21.5583 290.515 22.0925 290.72 22.6429C291.351 24.3346 291.977 26.0277 292.603 27.721C293.229 29.4048 293.855 31.0883 294.482 32.7718C294.883 33.8506 295.284 34.9296 295.684 36.0089C296.93 39.3673 298.204 42.7122 299.525 46.042C299.932 47.1877 299.932 47.1877 299.932 48.2346C300.277 48.2346 300.623 48.2346 300.979 48.2346C301.029 47.8128 301.08 47.391 301.133 46.9564C301.588 44.6603 302.372 42.5954 303.22 40.4193C303.479 39.7441 303.479 39.7441 303.743 39.0551C304.302 37.5989 304.865 36.1443 305.428 34.6897C306.003 33.1961 306.577 31.7021 307.151 30.2081C307.53 29.2217 307.909 28.2353 308.289 27.2492C309.991 22.826 311.654 18.3892 313.292 13.9422C313.46 13.4896 313.629 13.0371 313.802 12.5709C313.943 12.1872 314.084 11.8035 314.23 11.4083C314.589 10.5444 314.589 10.5444 315.112 10.021C315.968 9.97543 316.826 9.96495 317.683 9.96985C318.201 9.97154 318.719 9.97322 319.252 9.97496C319.797 9.97935 320.342 9.98373 320.903 9.98825C321.724 9.9918 321.724 9.9918 322.561 9.99541C323.917 10.0016 325.273 10.0102 326.629 10.021C326.641 16.7689 326.65 23.5169 326.656 30.2649C326.659 33.3979 326.662 36.5309 326.668 39.6639C326.674 42.6847 326.677 45.7054 326.678 48.7262C326.679 49.8815 326.681 51.0368 326.684 52.192C326.688 53.8041 326.688 55.4162 326.688 57.0283C326.69 57.511 326.692 57.9937 326.694 58.491C326.689 61.7853 326.689 61.7853 326.105 62.3685C323.514 62.3685 320.923 62.3685 318.253 62.3685C318.08 49.2397 317.908 36.111 317.73 22.5844C313.319 34.5015 313.319 34.5015 308.913 46.4201C308.056 48.7319 308.056 48.7319 307.654 49.8162C307.375 50.5688 307.096 51.3216 306.819 52.0746C306.397 53.2195 305.972 54.3635 305.547 55.5073C305.309 56.1513 305.07 56.7953 304.825 57.4588C304.15 59.1497 303.389 60.7542 302.549 62.3685C301.623 62.4392 300.696 62.4899 299.768 62.532C299.252 62.5624 298.736 62.5928 298.204 62.6241C296.791 62.3685 296.791 62.3685 296.006 61.2726C295.131 59.5778 294.454 57.88 293.793 56.0902C293.658 55.7267 293.522 55.3632 293.383 54.9886C292.95 53.8199 292.52 52.6499 292.09 51.4798C291.821 50.7547 291.553 50.0298 291.284 49.3049C290.292 46.6263 289.305 43.946 288.317 41.2659C286.104 35.2737 283.89 29.2816 281.61 23.1078C281.437 36.0638 281.264 49.0199 281.086 62.3685C279.014 62.3685 276.941 62.3685 274.805 62.3685C273.793 61.357 274.218 59.8369 274.216 58.491C274.218 58.0083 274.22 57.5256 274.222 57.0283C274.222 56.5227 274.222 56.0172 274.222 55.4963C274.222 53.8167 274.226 52.137 274.23 50.4574C274.231 49.2962 274.232 48.135 274.232 46.9739C274.234 43.911 274.24 40.8482 274.245 37.7854C274.251 34.6627 274.253 31.54 274.256 28.4172C274.261 22.2851 274.271 16.1531 274.281 10.021Z" fill="#F5E7B8"/>
<path d="M143.381 12.9982C146.697 15.5893 148.812 18.6293 150.218 22.5843C150.284 24.0566 150.284 24.0566 150.218 25.2017C148.499 25.775 147.215 25.7773 145.409 25.7579C144.556 25.7508 144.556 25.7508 143.685 25.7436C143.25 25.7375 142.815 25.7315 142.366 25.7252C142.252 25.4276 142.137 25.13 142.019 24.8234C140.528 21.1926 138.881 18.434 135.496 16.3354C132.168 15.1549 128.126 15.1583 124.895 16.5971C121.013 18.9088 118.96 22.4929 117.763 26.7721C116.477 34.7876 115.938 44.6336 120.734 51.5759C121.715 52.7731 122.759 53.6595 124.045 54.5163C124.322 54.7019 124.599 54.8875 124.885 55.0786C128.344 56.416 133.527 56.2281 137.019 55.0868C140.503 52.9994 142.575 49.6322 144.46 46.1407C147.311 46.659 147.311 46.659 150.218 47.1877C150.889 49.8709 150.28 50.7648 149.018 53.1217C145.859 58.0521 141.665 60.5825 136.281 62.532C130.255 63.791 124.047 63.2819 118.722 60.1253C113.15 56.2559 109.522 50.9619 108.177 44.3086C106.959 35.2824 107.049 25.0064 112.528 17.3496C115.346 13.8949 118.345 11.6755 122.474 10.0209C123.316 9.68085 123.316 9.68085 124.176 9.33388C131.071 8.06968 137.539 9.04357 143.381 12.9982Z" fill="#F5E7B8"/>
<path d="M184.196 24.6089C184.816 24.6102 185.437 24.6116 186.077 24.613C186.698 24.6116 187.318 24.6103 187.958 24.6089C189.479 24.6784 189.479 24.6784 190.003 25.2019C190.056 26.0715 190.074 26.9434 190.077 27.8147C190.081 28.3721 190.085 28.9296 190.088 29.5039C190.09 30.1113 190.093 30.7187 190.095 31.3445C190.107 32.6191 190.12 33.8938 190.133 35.1684C190.151 37.1868 190.166 39.2051 190.173 41.2236C190.182 43.1655 190.203 45.107 190.226 47.0488C190.225 47.652 190.224 48.2551 190.223 48.8766C190.249 52.1725 190.249 52.1725 191.527 55.1468C193.543 56.8804 195.245 56.8449 197.839 56.8312C201.013 56.3895 204.201 54.3908 206.231 51.8991C206.474 50.6694 206.474 50.6694 206.449 49.2784C206.457 48.7457 206.466 48.213 206.475 47.6642C206.477 47.09 206.478 46.5158 206.48 45.9241C206.492 45.0405 206.492 45.0405 206.505 44.139C206.53 42.2543 206.544 40.3698 206.558 38.4851C206.577 36.5967 206.598 34.7083 206.622 32.82C206.636 31.6438 206.647 30.4676 206.655 29.2913C206.663 28.4972 206.663 28.4972 206.672 27.6871C206.675 27.2187 206.678 26.7504 206.682 26.2678C206.754 25.2019 206.754 25.2019 207.278 24.6784C208.323 24.6267 209.371 24.6105 210.418 24.613C210.991 24.6116 211.563 24.6103 212.152 24.6089C213.559 24.6784 213.559 24.6784 214.083 25.2019C214.135 26.3392 214.15 27.4782 214.15 28.6167C214.151 28.9734 214.152 29.33 214.153 29.6975C214.156 30.8818 214.154 32.066 214.152 33.2503C214.153 34.0699 214.153 34.8894 214.154 35.709C214.155 37.4287 214.153 39.1485 214.151 40.8683C214.148 43.0776 214.15 45.2869 214.153 47.4962C214.155 49.1892 214.154 50.8821 214.153 52.5751C214.152 53.3899 214.153 54.2048 214.154 55.0196C214.155 56.1565 214.153 57.2934 214.15 58.4303C214.15 59.0785 214.15 59.7267 214.149 60.3946C214.083 61.8451 214.083 61.8451 213.559 62.3686C212.513 62.4203 211.466 62.4365 210.418 62.434C209.846 62.4354 209.274 62.4367 208.684 62.4381C207.278 62.3686 207.278 62.3686 206.754 61.8451C206.716 61.0498 206.71 60.2529 206.721 59.4568C206.726 59.0242 206.731 58.5917 206.736 58.146C206.742 57.812 206.748 57.478 206.754 57.1339C206.269 57.4942 206.269 57.4942 205.775 57.8618C200.519 61.6696 196.649 63.612 190.003 62.8921C186.778 61.7978 184.638 59.7112 183.134 56.6758C181.8 53.5705 181.877 50.5871 181.928 47.2533C181.93 46.6221 181.931 45.991 181.933 45.3407C181.939 44.0156 181.949 42.6905 181.964 41.3655C181.987 39.3276 181.996 37.2901 182.003 35.2522C182.01 33.9633 182.017 32.6743 182.026 31.3854C182.03 30.7731 182.034 30.1609 182.038 29.53C182.044 28.9688 182.051 28.4077 182.058 27.8295C182.063 27.3334 182.068 26.8373 182.074 26.3262C182.193 24.5799 182.414 24.6903 184.196 24.6089Z" fill="#F5E7B8"/>
<path d="M428.184 25.7256C432.644 28.4706 432.644 28.4706 433.286 30.8172C433.33 31.21 433.374 31.6027 433.419 32.0073C432.091 32.9558 431.216 33.5778 429.558 33.5778C427.942 32.962 426.741 32.0998 425.383 31.0422C423.434 29.6754 421.424 29.7931 419.121 29.7498C418.443 29.7303 417.765 29.7107 417.066 29.6905C414.788 29.9485 413.694 30.5338 411.956 32.0073C411.219 33.8071 411.219 33.8071 411.433 35.6717C413.311 37.5393 415.214 38.2901 417.714 39.0742C418.057 39.1846 418.399 39.295 418.752 39.4087C420.421 39.9421 422.093 40.4359 423.781 40.9044C427.856 42.0501 431.212 43.311 433.772 46.82C435.061 49.4513 434.889 52.1895 434.466 55.0402C432.965 58.3199 430.309 60.487 426.982 61.7943C421.349 63.6025 414.793 63.8154 409.339 61.3219C406.371 59.7301 404.033 58.1072 402.534 55.0402C403.057 53.4698 403.057 53.4698 404.529 52.5537C406.198 51.8994 406.198 51.8994 407.31 51.8994C408.292 52.4228 408.292 52.4228 409.208 53.6334C411.274 56.1016 413.237 56.9895 416.445 57.3366C420.4 57.4507 423.309 57.2876 426.614 55.0402C427.346 53.5752 427.269 52.4726 427.137 50.8524C424.611 47.6895 419.825 47.0262 416.079 46.1411C410.738 44.8624 407.644 43.4202 404.464 38.8779C403.522 35.966 403.922 33.6331 405.118 30.8949C406.899 27.6059 409.5 25.9866 412.899 24.6071C417.627 23.3313 423.773 23.5506 428.184 25.7256Z" fill="#F5E7B8"/>
<path d="M450.939 12.0454C451.724 12.0474 451.724 12.0474 452.526 12.0495C453.049 12.0482 453.573 12.0468 454.112 12.0454C455.405 12.1149 455.405 12.1149 455.928 12.6384C455.974 13.5324 455.984 14.4282 455.979 15.3233C455.978 15.8648 455.976 16.4063 455.974 16.9642C455.97 17.5341 455.966 18.104 455.961 18.6911C455.959 19.263 455.956 19.8349 455.954 20.4241C455.948 21.8422 455.939 23.2602 455.928 24.6783C456.602 24.6723 457.277 24.6662 457.971 24.6599C458.85 24.655 459.728 24.6503 460.607 24.6456C461.274 24.639 461.274 24.639 461.955 24.6323C462.379 24.6306 462.802 24.629 463.239 24.6272C463.631 24.6245 464.023 24.6217 464.426 24.6189C465.351 24.6783 465.351 24.6783 465.874 25.2018C465.874 26.7565 465.874 28.3113 465.874 29.9131C462.592 29.9131 459.31 29.9131 455.928 29.9131C455.964 33.3884 456.01 36.8634 456.066 40.3385C456.083 41.521 456.098 42.7036 456.11 43.8863C456.127 45.5847 456.155 47.2828 456.184 48.9811C456.187 49.5111 456.191 50.0412 456.194 50.5873C456.21 51.326 456.21 51.326 456.225 52.0796C456.231 52.5132 456.237 52.9468 456.243 53.3935C456.502 54.7863 456.89 55.2525 458.022 56.0868C459.797 56.3721 459.797 56.3721 461.752 56.414C465.307 56.5667 465.307 56.5667 465.874 57.1338C465.948 58.5318 465.897 59.9209 465.874 61.3216C463.794 62.7195 461.613 62.5609 459.2 62.5648C458.795 62.5777 458.39 62.5905 457.973 62.6037C455.082 62.6182 452.429 62.1977 450.17 60.2746C447.756 57.0877 447.797 54.3172 447.872 50.4124C447.875 49.8251 447.878 49.2377 447.881 48.6325C447.892 46.7656 447.919 44.8993 447.945 43.0327C447.956 41.7632 447.965 40.4937 447.974 39.2242C447.997 36.1203 448.033 33.0168 448.076 29.9131C445.83 29.9131 443.585 29.9131 441.271 29.9131C441.271 28.1856 441.271 26.4581 441.271 24.6783C443.689 24.6783 446.108 24.6783 448.6 24.6783C448.589 23.5663 448.578 22.4542 448.567 21.3085C448.567 12.173 448.567 12.173 450.939 12.0454Z" fill="#F5E7B8"/>
<path fill-rule="evenodd" clip-rule="evenodd" d="M234.498 10.021H227.17C227.159 16.1531 227.15 22.2852 227.144 28.4173L227.143 29.1274C227.141 32.0134 227.139 34.8994 227.134 37.7854C227.128 40.8483 227.123 43.9111 227.121 46.9739C227.12 48.1351 227.119 49.2962 227.118 50.4574C227.114 52.1371 227.11 53.8167 227.11 55.4963L227.11 57.0283L227.104 58.4911C227.105 58.7987 227.083 59.1155 227.061 59.4332C226.987 60.5053 226.913 61.5882 227.693 62.3685C227.874 62.3771 228.052 62.3862 228.23 62.3953C229.466 62.4585 230.638 62.5184 231.881 62.3685C232.342 61.9077 232.6 61.6498 232.772 61.3436C232.991 60.954 233.072 60.4864 233.255 59.4239L233.451 57.6572C233.707 57.6339 233.861 57.6198 233.998 57.662C234.206 57.7258 234.373 57.9186 234.795 58.4036C235.882 59.4316 236.988 60.3941 238.162 61.3215C241.847 63.5757 246.477 63.4299 250.591 62.6036C254.401 61.3513 256.923 58.8742 259.101 55.5633C262.248 49.1815 262.841 41.8087 260.833 34.9597C259.279 30.6948 256.831 27.06 252.722 24.9073C248.578 23.3318 244.357 23.835 240.256 25.2018L234.498 28.8661V10.021ZM253.344 36.1947C252.024 33.2088 250.712 30.6734 247.586 29.3895C247.413 29.3729 247.239 29.3557 247.064 29.3384C244.657 29.1006 241.978 28.836 239.772 29.8553L238.687 30.4364C237.448 30.9806 236.46 31.5534 235.383 32.3772C234.924 33.0005 234.612 33.4238 234.403 33.8929C233.963 34.8853 233.985 36.0832 234.054 39.815C234.097 40.9998 234.139 42.1819 234.15 43.3675C234.16 45.2127 234.204 47.0555 234.254 48.9C234.617 51.7962 235.488 54.4241 237.836 56.3157C240.636 58.2677 243.782 58.1084 247.062 57.6571C249.639 56.6481 250.993 54.7298 252.405 52.449C254.666 47.8713 254.771 41.0955 253.344 36.1947Z" fill="#F5E7B8"/>
<path d="M162.258 10.021C164.677 10.021 167.095 10.021 169.587 10.021C169.599 16.769 169.608 23.5169 169.614 30.2649C169.617 33.3979 169.621 36.5309 169.626 39.6639C169.632 42.6847 169.635 45.7055 169.637 48.7263C169.638 49.8815 169.639 51.0368 169.642 52.1921C169.646 53.8042 169.647 55.4162 169.646 57.0283C169.648 57.511 169.65 57.9937 169.652 58.4911C169.647 61.7853 169.647 61.7853 169.063 62.3685C166.818 62.3685 164.572 62.3685 162.258 62.3685C162.258 45.0938 162.258 27.8191 162.258 10.021Z" fill="#F5E7B8"/>
<path d="M540.208 24.1555C540.731 24.679 540.731 24.679 540.782 26.1042C540.776 26.6812 540.77 27.2581 540.764 27.8526C540.759 28.4309 540.754 29.0092 540.749 29.605C540.743 30.0524 540.737 30.4998 540.731 30.9607C540.288 30.9681 539.846 30.9755 539.39 30.9832C535.867 31.1313 533.367 31.3935 530.517 33.5474C529.738 34.1015 529.738 34.1015 528.691 34.1015C527.751 35.722 527.508 36.9143 527.486 38.7795C527.472 39.547 527.472 39.547 527.459 40.33C527.455 40.8787 527.45 41.4273 527.446 41.9925C527.437 42.5577 527.428 43.1228 527.419 43.705C527.391 45.5096 527.37 47.3141 527.35 49.1187C527.327 50.9289 527.302 52.7391 527.275 54.5493C527.258 55.6759 527.244 56.8026 527.233 57.9293C527.226 58.4361 527.219 58.9428 527.212 59.4649C527.207 59.9131 527.202 60.3613 527.196 60.8231C527.121 61.8457 527.121 61.8457 526.597 62.3692C525.464 62.421 524.329 62.4371 523.195 62.4346C522.574 62.436 521.953 62.4373 521.313 62.4387C519.792 62.3692 519.792 62.3692 519.269 61.8457C519.216 60.7084 519.202 59.5694 519.201 58.4309C519.2 58.0742 519.199 57.7176 519.198 57.3501C519.196 56.1658 519.197 54.9816 519.199 53.7973C519.199 52.9777 519.198 52.1582 519.197 51.3386C519.197 49.6189 519.198 47.8991 519.2 46.1793C519.203 43.97 519.202 41.7607 519.198 39.5514C519.197 37.8584 519.197 36.1655 519.198 34.4725C519.199 33.6577 519.198 32.8428 519.197 32.028C519.196 30.8911 519.198 29.7542 519.201 28.6173C519.201 27.9691 519.202 27.3209 519.202 26.653C519.269 25.2025 519.269 25.2025 519.792 24.679C520.937 24.641 522.082 24.6352 523.227 24.6463C524.168 24.6534 524.168 24.6534 525.127 24.6606C525.612 24.6667 526.097 24.6727 526.597 24.679C526.597 26.5792 526.597 28.4794 526.597 30.4372C527.191 29.8866 527.785 29.336 528.397 28.7686C531.997 25.65 535.273 23.3846 540.208 24.1555Z" fill="#F5E7B8"/>
<path d="M387.322 24.627C388.261 24.6361 388.261 24.6361 389.218 24.6454C390.158 24.6524 390.158 24.6524 391.118 24.6597C391.603 24.6657 392.088 24.6718 392.588 24.6781C392.6 29.515 392.609 34.3519 392.615 39.1888C392.618 41.4345 392.621 43.6802 392.627 45.926C392.633 48.0914 392.636 50.2569 392.638 52.4224C392.639 53.2503 392.64 54.0783 392.643 54.9063C392.647 56.0621 392.648 57.2178 392.647 58.3736C392.649 59.0327 392.65 59.6918 392.651 60.3709C392.588 61.8448 392.588 61.8448 392.064 62.3683C391.019 62.42 389.971 62.4362 388.924 62.4337C388.351 62.4351 387.779 62.4364 387.19 62.4378C385.783 62.3683 385.783 62.3683 385.259 61.8448C385.207 60.7075 385.192 59.5685 385.192 58.4299C385.191 58.0733 385.19 57.7167 385.189 57.3492C385.186 56.1649 385.188 54.9807 385.19 53.7964C385.189 52.9768 385.189 52.1573 385.188 51.3377C385.187 49.6179 385.189 47.8982 385.191 46.1784C385.194 43.9691 385.192 41.7598 385.189 39.5505C385.187 37.8575 385.188 36.1646 385.189 34.4716C385.19 33.6568 385.189 32.8419 385.188 32.0271C385.187 30.8902 385.189 29.7533 385.192 28.6164C385.192 27.9682 385.192 27.32 385.193 26.6521C385.285 24.6502 385.307 24.6939 387.322 24.627Z" fill="#F5E7B8"/>
<path fill-rule="evenodd" clip-rule="evenodd" d="M508.8 38.8115C508.027 34.3935 505.997 30.2072 502.42 27.3932C493.044 21.4849 482.875 23.385 476.246 31.9082C473.073 37.4886 472.505 42.5238 473.451 48.8393C474.564 53.5847 476.936 57.3871 481 60.1247L482.102 60.7974C483.172 61.4853 484.195 62.0403 485.368 62.5335C489.853 63.6436 496.165 63.5566 500.359 61.5499C503.76 59.7578 506.493 57.1256 507.753 53.4688C506.549 52.7744 505.427 52.3543 504.088 51.9638C503.255 51.9291 502.864 51.9128 502.524 52.0369C502.223 52.1468 501.963 52.3669 501.471 52.7817C499.489 55.0734 497.076 56.4428 494.142 57.1331C490.863 57.3529 488.364 57.1928 485.57 55.258C483.585 53.5259 481.802 51.2851 481.403 48.6355L481.278 47.3603C481.201 46.6048 481.127 45.8492 481.055 45.0932C484.272 45.1042 487.489 45.113 490.706 45.1188C492.015 45.1209 493.324 45.1233 494.633 45.1259C496.569 45.1326 498.506 45.1391 500.442 45.1421L502.27 45.1443L504.067 45.1525L505.718 45.1526L507.18 45.1561C507.823 45.1192 508.089 45.1039 508.304 44.9919C508.456 44.913 508.583 44.7861 508.8 44.5697C508.981 42.6422 508.933 40.7412 508.8 38.8115ZM501.2 36.6848C500.203 34.0538 499.279 31.8317 496.753 30.3356C492.486 28.2568 489.086 28.2425 485.21 31.0902C481.946 33.9842 481.56 35.8335 481.055 40.3819H501.47C501.47 38.5519 501.47 38.0014 501.378 37.4668C501.338 37.2367 501.282 37.0096 501.2 36.6848Z" fill="#F5E7B8"/>
<path fill-rule="evenodd" clip-rule="evenodd" d="M374.266 37.2416C372.897 33.133 371.024 29.3617 367.461 26.7721C358.73 21.5119 347.795 23.393 341.979 31.9271L341.288 33.0538L340.629 34.0987C338.329 38.6098 338.138 45.9865 339.68 50.8008L340.241 51.8989C340.805 53.4076 341.444 54.7393 342.334 56.0867C345.822 59.9707 349.438 62.6144 354.714 63.0493C361.147 63.1713 366.249 62.4501 371.06 57.9516C372.427 56.5327 373.158 55.5114 373.22 53.4693C371.651 52.5978 370.319 51.8989 368.508 51.8989L367.101 53.3058C365.142 55.4608 362.92 56.3885 360.133 57.1337C357.013 57.5859 354.502 57.1901 351.757 55.5632C349.942 53.5656 348.989 52.5172 348.393 51.2948C347.736 49.9446 347.513 48.3821 347.046 45.0937H374.266V37.2416ZM366.649 34.9087C366.287 33.8494 365.371 32.9794 362.488 30.24C358.395 28.34 353.356 28.7302 349.922 31.702C347.355 34.4168 347.045 36.6518 347.045 40.3823H366.937V36.718C366.866 35.9356 366.817 35.4016 366.649 34.9087Z" fill="#F5E7B8"/>
<path d="M385.259 10.021C387.85 10.021 390.441 10.021 393.111 10.021C393.133 11.295 393.154 12.569 393.177 13.8816C393.186 14.282 393.196 14.6824 393.205 15.095C393.213 16.0215 393.163 16.948 393.111 17.8731C392.064 18.9201 392.064 18.9201 390.606 19.0407C390.04 19.0333 389.474 19.0259 388.891 19.0182C388.039 19.0132 388.039 19.0132 387.171 19.008C385.783 18.9201 385.783 18.9201 385.259 18.3966C385.221 16.985 385.211 15.5872 385.226 14.1761C385.229 13.779 385.231 13.3818 385.233 12.9727C385.24 11.9888 385.249 11.0049 385.259 10.021Z" fill="#F5E7B8"/>
</svg>
