<svg width="289" height="49" viewBox="0 0 289 49" fill="none" xmlns="http://www.w3.org/2000/svg">
<path d="M18.0121 6.87802C19.025 7.46544 19.8378 8.30908 20.1848 9.44122C20.2329 10.0113 20.2329 10.0113 20.2348 10.6327C20.2375 10.8374 20.2402 11.042 20.243 11.2528C20.1812 11.8807 19.9875 12.2505 19.7042 12.8054C19.7649 13.3578 19.9874 13.6316 20.3698 14.0215C20.4763 14.131 20.5827 14.2405 20.6924 14.3534C20.8661 14.5279 20.8661 14.5279 21.0433 14.7059C21.2215 14.8865 21.2215 14.8865 21.4032 15.0707C21.6547 15.3246 21.9068 15.5778 22.1596 15.8305C22.5465 16.2185 22.9295 16.6102 23.3124 17.0022C23.5571 17.2483 23.8019 17.4941 24.0471 17.7397C24.1616 17.8576 24.2761 17.9756 24.3941 18.0971C24.5025 18.2041 24.611 18.3111 24.7228 18.4213C24.8173 18.5165 24.9118 18.6117 25.0091 18.7098C25.3119 18.9346 25.3119 18.9346 25.7259 18.8536C26.133 18.7263 26.4578 18.5617 26.823 18.3423C27.9745 17.6522 28.9422 17.5684 30.2573 17.5914C30.7926 17.598 31.3278 17.6046 31.8793 17.6114C32.3551 16.4483 32.8309 15.2853 33.3211 14.087C33.1097 13.9813 32.8982 13.8755 32.6803 13.7666C31.7306 12.7937 31.3769 11.8434 31.3186 10.4925C31.3518 9.29609 31.6899 8.53491 32.5101 7.67339C33.6077 6.66106 34.4778 6.47998 35.9632 6.50944C37.3457 6.62799 38.0914 7.22882 38.9876 8.25349C39.6972 9.30523 39.6836 10.4596 39.5689 11.684C39.2434 13.0541 38.3265 13.7728 37.216 14.5476C36.367 14.8359 35.4939 14.8497 34.6027 14.888C34.3882 15.415 34.175 15.9424 33.9619 16.47C33.8702 16.6952 33.8702 16.6952 33.7767 16.9249C33.7189 17.0684 33.661 17.212 33.6015 17.3598C33.5478 17.4924 33.4941 17.6249 33.4388 17.7615C33.3032 18.0838 33.3032 18.0838 33.3211 18.4124C33.5654 18.6162 33.5654 18.6162 33.8818 18.8229C35.2788 19.8441 36.5363 21.3028 36.8455 23.0582C36.8564 23.4185 36.8591 23.7791 36.8555 24.1395C36.8541 24.327 36.8526 24.5145 36.8511 24.7077C36.8484 24.9221 36.8484 24.9221 36.8455 25.1408C37.0314 25.1699 37.0314 25.1699 37.221 25.1996C38.1782 25.3536 39.1133 25.5295 40.0495 25.7816C40.0726 25.6494 40.0958 25.5172 40.1196 25.3811C40.5646 24.3843 41.4557 23.639 42.4625 23.2184C43.627 22.864 44.7358 23.0031 45.8167 23.5388C46.7841 24.2168 47.6716 25.0634 47.8993 26.2622C48.022 27.6704 48.0182 28.8207 47.0983 29.9468C46.3514 30.7522 45.5216 31.3223 44.4024 31.4336C42.9529 31.4773 41.8647 31.2342 40.7879 30.234C40.1065 29.4748 39.6823 28.728 39.679 27.694C39.7038 27.3817 39.7038 27.3817 39.7291 27.0632C39.587 27.0698 39.4449 27.0764 39.2986 27.0832C38.3642 27.0871 37.4437 26.8975 36.5251 26.7428C36.4725 26.8648 36.4198 26.9869 36.3655 27.1126C35.797 28.3468 35.0684 29.6338 33.8017 30.2672C34.1418 31.1903 34.6151 32.0516 35.067 32.9236C35.1625 33.111 35.1625 33.111 35.2598 33.3022C35.3181 33.4154 35.3765 33.5286 35.4366 33.6452C35.5639 33.9518 35.5639 33.9518 35.5639 34.4324C35.7225 34.3795 35.8811 34.3266 36.0445 34.2722C37.3254 34.1302 38.3065 34.1969 39.383 34.9374C40.2705 35.6965 40.9236 36.6164 41.0701 37.7934C41.0989 39.1836 40.8976 40.2454 39.9406 41.2959C38.8518 42.2831 37.884 42.5258 36.43 42.4861C35.1927 42.3868 34.4535 41.9703 33.604 41.0606C32.8573 40.0563 32.5235 38.8713 32.6803 37.6363C32.9862 36.535 33.4196 35.8182 34.2823 35.0731C34.0249 34.1991 33.6335 33.4183 33.221 32.6101C33.1537 32.4769 33.0864 32.3437 33.017 32.2065C32.8519 31.8801 32.6863 31.5541 32.5201 31.2284C32.3359 31.2536 32.1517 31.2787 31.9619 31.3047C29.6876 31.5857 27.7596 31.5151 25.8718 30.0569C25.7777 29.9749 25.6835 29.8929 25.5865 29.8085C25.2771 29.5674 25.2771 29.5674 24.6703 29.6264C24.2456 29.9191 24.2456 29.9191 23.8093 30.3172C23.6397 30.464 23.4699 30.6104 23.2999 30.7565C23.1661 30.872 23.1661 30.872 23.0297 30.9898C22.5457 31.3996 22.0463 31.7894 21.5465 32.1795C21.4054 32.2901 21.4054 32.2901 21.2615 32.4028C20.7995 32.764 20.3352 33.1215 19.8644 33.4712C19.9162 33.6087 19.968 33.7462 20.0214 33.8879C20.3656 35.035 20.3733 36.4086 19.8687 37.5131C19.2205 38.6296 18.3847 39.3306 17.141 39.7189C15.7565 39.9279 14.6001 39.7426 13.4564 38.9179C12.6765 38.2075 12.077 37.3627 11.9508 36.2959C11.9609 34.7722 12.0273 33.7706 13.0759 32.6301C13.9487 31.821 14.8206 31.3678 16.0196 31.3085C16.8648 31.3427 17.5249 31.6362 18.2624 32.0294C18.4758 32.1365 18.6894 32.2433 18.9032 32.3498C20.1266 31.3958 21.343 30.4337 22.5477 29.4562C22.6584 29.3665 22.7691 29.2768 22.8831 29.1844C23.038 29.0584 23.038 29.0584 23.196 28.9299C23.2874 28.8555 23.3789 28.7812 23.4731 28.7045C23.7304 28.4926 23.7304 28.4926 24.0295 28.1846C23.9736 28.0782 23.9176 27.9719 23.86 27.8623C23.7871 27.7208 23.7142 27.5794 23.6391 27.4336C23.5666 27.2942 23.4941 27.1548 23.4194 27.0112C22.8477 25.7273 22.857 23.9244 23.1891 22.5632C23.4302 21.9496 23.74 21.3987 24.0796 20.8354C24.3845 20.3826 24.3845 20.3826 24.3183 20.0191C24.1647 19.6307 23.9765 19.4167 23.6843 19.1187C23.5246 18.9544 23.5246 18.9544 23.3617 18.7868C23.2459 18.6705 23.1301 18.5542 23.0108 18.4343C22.892 18.3139 22.7732 18.1936 22.6509 18.0695C22.3994 17.8156 22.1473 17.5624 21.8945 17.3097C21.5076 16.9217 21.1246 16.53 20.7417 16.138C20.497 15.8919 20.2522 15.6461 20.007 15.4005C19.8925 15.2826 19.778 15.1646 19.6601 15.0431C19.5516 14.9361 19.4431 14.8291 19.3313 14.7188C19.2369 14.6237 19.1424 14.5285 19.045 14.4304C18.7416 14.2052 18.7416 14.2052 18.3243 14.2874C17.946 14.3919 17.946 14.3919 17.6441 14.5739C16.7644 14.9687 15.4219 14.8563 14.4952 14.6289C13.4487 14.1634 12.7739 13.2549 12.1848 12.3048C11.7939 11.2422 11.7957 9.78074 12.2449 8.74034C13.4734 6.70445 15.8095 5.8747 18.0121 6.87802Z" fill="#6D011C"/>
<path d="M149.93 11.3724C151.757 11.3724 153.584 11.3724 155.466 11.3724C156.407 13.1863 157.2 14.9976 157.905 16.9139C158.005 17.1829 158.106 17.4519 158.209 17.7291C158.527 18.5811 158.842 19.4338 159.157 20.2866C159.472 21.1346 159.788 21.9825 160.104 22.8304C160.306 23.3737 160.507 23.9171 160.709 24.4607C161.337 26.152 161.978 27.8366 162.643 29.5136C162.848 30.0906 162.848 30.0906 162.848 30.6179C163.022 30.6179 163.196 30.6179 163.376 30.6179C163.401 30.4055 163.427 30.193 163.453 29.9741C163.682 28.8178 164.077 27.7778 164.504 26.6819C164.635 26.3418 164.635 26.3418 164.768 25.9948C165.049 25.2614 165.333 24.5289 165.616 23.7963C165.906 23.044 166.195 22.2916 166.484 21.5392C166.675 21.0424 166.866 20.5457 167.057 20.049C167.914 17.8214 168.752 15.5868 169.577 13.3472C169.662 13.1193 169.746 12.8914 169.834 12.6566C169.905 12.4633 169.976 12.2701 170.049 12.071C170.23 11.636 170.23 11.636 170.494 11.3724C170.925 11.3494 171.357 11.3442 171.788 11.3466C172.049 11.3475 172.31 11.3483 172.579 11.3492C172.853 11.3514 173.127 11.3536 173.41 11.3559C173.823 11.3577 173.823 11.3577 174.245 11.3595C174.928 11.3626 175.611 11.367 176.294 11.3724C176.3 14.7708 176.305 18.1693 176.307 21.5678C176.309 23.1457 176.311 24.7235 176.314 26.3014C176.317 27.8228 176.318 29.3441 176.319 30.8655C176.319 31.4473 176.32 32.0291 176.322 32.611C176.324 33.4229 176.324 34.2347 176.324 35.0466C176.325 35.2897 176.326 35.5328 176.327 35.7833C176.324 37.4424 176.324 37.4424 176.03 37.7361C174.725 37.7361 173.42 37.7361 172.076 37.7361C171.989 31.1241 171.902 24.5121 171.812 17.6997C169.591 23.7015 169.591 23.7015 167.371 29.704C166.94 30.8683 166.94 30.8683 166.737 31.4144C166.597 31.7934 166.457 32.1726 166.317 32.5518C166.104 33.1284 165.89 33.7046 165.676 34.2806C165.556 34.605 165.436 34.9293 165.313 35.2635C164.973 36.115 164.589 36.9231 164.166 37.7361C163.7 37.7717 163.233 37.7973 162.766 37.8185C162.506 37.8338 162.246 37.8491 161.978 37.8648C161.266 37.7361 161.266 37.7361 160.871 37.1842C160.43 36.3307 160.089 35.4756 159.757 34.5742C159.688 34.3911 159.62 34.208 159.55 34.0194C159.332 33.4308 159.115 32.8415 158.899 32.2522C158.764 31.8871 158.628 31.522 158.493 31.1569C157.993 29.8079 157.496 28.458 156.999 27.1082C155.884 24.0904 154.769 21.0726 153.621 17.9633C153.534 24.4883 153.447 31.0134 153.357 37.7361C152.313 37.7361 151.269 37.7361 150.194 37.7361C149.684 37.2267 149.898 36.4611 149.897 35.7833C149.898 35.5402 149.899 35.2971 149.9 35.0466C149.9 34.792 149.9 34.5374 149.9 34.2751C149.9 33.4292 149.902 32.5833 149.904 31.7373C149.905 31.1525 149.905 30.5677 149.905 29.9829C149.906 28.4404 149.909 26.8979 149.912 25.3553C149.915 23.7827 149.916 22.21 149.917 20.6373C149.92 17.549 149.925 14.4607 149.93 11.3724Z" fill="#6E021C"/>
<path d="M84.0044 12.8718C85.6746 14.1767 86.7401 15.7078 87.4482 17.6996C87.4812 18.4411 87.4812 18.4411 87.4482 19.0178C86.5821 19.3065 85.9358 19.3077 85.026 19.2979C84.5963 19.2944 84.5963 19.2944 84.1579 19.2907C83.9387 19.2877 83.7195 19.2846 83.4936 19.2815C83.4359 19.1316 83.3781 18.9817 83.3186 18.8273C82.5676 16.9987 81.7381 15.6094 80.0334 14.5525C78.3576 13.958 76.322 13.9597 74.6947 14.6843C72.7395 15.8485 71.7056 17.6536 71.1027 19.8087C70.4549 23.8455 70.1835 28.8043 72.599 32.3006C73.0928 32.9036 73.619 33.35 74.2663 33.7815C74.406 33.875 74.5457 33.9684 74.6896 34.0647C76.4316 34.7382 79.0418 34.6436 80.8006 34.0688C82.555 33.0176 83.5986 31.3217 84.5482 29.5633C85.9837 29.8243 85.9837 29.8243 87.4482 30.0906C87.786 31.442 87.4792 31.8922 86.8437 33.0792C85.2526 35.5622 83.1406 36.8366 80.4289 37.8185C77.394 38.4525 74.2675 38.1961 71.5857 36.6063C68.7793 34.6576 66.9525 31.9914 66.2748 28.6406C65.6616 24.0947 65.7067 18.9194 68.4663 15.0633C69.8854 13.3234 71.3958 12.2056 73.4754 11.3723C73.8995 11.2011 73.8995 11.2011 74.3322 11.0263C77.8051 10.3896 81.0626 10.8801 84.0044 12.8718Z" fill="#6F041E"/>
<path d="M104.56 18.7192C104.873 18.7199 105.185 18.7205 105.507 18.7212C105.82 18.7206 106.133 18.7199 106.455 18.7192C107.221 18.7542 107.221 18.7542 107.485 19.0178C107.512 19.4558 107.52 19.8949 107.522 20.3337C107.524 20.6144 107.526 20.8952 107.528 21.1845C107.529 21.4904 107.53 21.7963 107.531 22.1114C107.537 22.7534 107.544 23.3953 107.55 24.0372C107.559 25.0538 107.567 26.0702 107.571 27.0868C107.575 28.0648 107.585 29.0426 107.597 30.0206C107.596 30.3243 107.596 30.6281 107.595 30.9411C107.608 32.601 107.608 32.601 108.252 34.099C109.268 34.9721 110.125 34.9542 111.431 34.9473C113.029 34.7248 114.635 33.7182 115.657 32.4633C115.78 31.844 115.78 31.844 115.767 31.1435C115.772 30.8752 115.776 30.6069 115.78 30.3305C115.781 30.0413 115.782 29.7521 115.783 29.4542C115.789 29.0091 115.789 29.0091 115.796 28.5551C115.808 27.6059 115.815 26.6568 115.822 25.7076C115.832 24.7566 115.843 23.8055 115.855 22.8545C115.862 22.2622 115.867 21.6698 115.871 21.0774C115.875 20.6775 115.875 20.6775 115.88 20.2695C115.881 20.0336 115.883 19.7977 115.885 19.5547C115.921 19.0178 115.921 19.0178 116.185 18.7542C116.711 18.7282 117.239 18.72 117.767 18.7212C118.055 18.7206 118.343 18.7199 118.64 18.7192C119.348 18.7542 119.348 18.7542 119.612 19.0178C119.638 19.5906 119.646 20.1643 119.646 20.7377C119.647 20.9173 119.647 21.0969 119.648 21.2819C119.649 21.8784 119.648 22.4748 119.647 23.0713C119.647 23.484 119.647 23.8967 119.648 24.3095C119.648 25.1756 119.648 26.0418 119.646 26.9079C119.645 28.0206 119.646 29.1332 119.647 30.2459C119.648 31.0985 119.648 31.9511 119.647 32.8038C119.647 33.2142 119.647 33.6245 119.648 34.0349C119.649 34.6075 119.648 35.18 119.646 35.7526C119.646 36.0791 119.646 36.4055 119.645 36.7419C119.612 37.4724 119.612 37.4724 119.348 37.7361C118.822 37.7621 118.294 37.7703 117.767 37.769C117.478 37.7697 117.19 37.7704 116.893 37.7711C116.185 37.7361 116.185 37.7361 115.921 37.4724C115.902 37.0719 115.899 36.6705 115.905 36.2696C115.907 36.0518 115.909 35.8339 115.912 35.6095C115.915 35.4412 115.918 35.273 115.921 35.0997C115.677 35.2812 115.677 35.2812 115.428 35.4663C112.781 37.384 110.832 38.3623 107.485 37.9997C105.86 37.4486 104.783 36.3977 104.025 34.869C103.353 33.3051 103.392 31.8026 103.418 30.1236C103.419 29.8057 103.42 29.4878 103.421 29.1603C103.423 28.493 103.428 27.8256 103.436 27.1583C103.448 26.132 103.452 25.1058 103.455 24.0795C103.459 23.4303 103.463 22.7812 103.467 22.132C103.469 21.8237 103.471 21.5153 103.473 21.1976C103.477 20.915 103.48 20.6324 103.483 20.3412C103.486 20.0913 103.489 19.8415 103.491 19.584C103.552 18.7046 103.663 18.7602 104.56 18.7192Z" fill="#70061F"/>
<path d="M227.44 19.2815C229.686 20.6639 229.686 20.6639 230.009 21.8457C230.031 22.0435 230.053 22.2413 230.076 22.4451C229.407 22.9228 228.967 23.236 228.132 23.236C227.318 22.9259 226.713 22.4917 226.029 21.959C225.047 21.2707 224.035 21.33 222.875 21.3082C222.534 21.2983 222.192 21.2885 221.841 21.2783C220.693 21.4082 220.142 21.703 219.267 22.4451C218.896 23.3515 218.896 23.3515 219.003 24.2906C219.949 25.2312 220.908 25.6093 222.167 26.0042C222.339 26.0598 222.512 26.1154 222.69 26.1727C223.53 26.4413 224.372 26.69 225.222 26.9259C227.274 27.5029 228.965 28.138 230.254 29.9052C230.903 31.2304 230.817 32.6094 230.603 34.0452C229.848 35.6969 228.51 36.7883 226.834 37.4467C223.997 38.3574 220.696 38.4646 217.949 37.2088C216.454 36.4071 215.277 35.5898 214.521 34.0452C214.785 33.2542 214.785 33.2542 215.527 32.7929C216.367 32.4633 216.367 32.4633 216.927 32.4633C217.421 32.727 217.421 32.727 217.883 33.3366C218.924 34.5797 219.912 35.0269 221.527 35.2017C223.52 35.2591 224.984 35.177 226.649 34.0452C227.018 33.3073 226.979 32.752 226.912 31.9361C225.64 30.3431 223.23 30.0091 221.343 29.5633C218.654 28.9193 217.095 28.193 215.494 25.9053C215.019 24.4388 215.221 23.2639 215.823 21.8849C216.72 20.2284 218.03 19.4129 219.742 18.7181C222.123 18.0756 225.218 18.1861 227.44 19.2815Z" fill="#6F051F"/>
<path d="M238.9 12.3919C239.295 12.3929 239.295 12.3929 239.699 12.3939C239.963 12.3933 240.226 12.3926 240.498 12.3919C241.149 12.4269 241.149 12.4269 241.413 12.6905C241.436 13.1407 241.441 13.5919 241.438 14.0427C241.438 14.3154 241.437 14.5882 241.436 14.8691C241.434 15.1561 241.431 15.4431 241.429 15.7388C241.428 16.0269 241.427 16.3149 241.425 16.6116C241.422 17.3258 241.418 18.04 241.413 18.7542C241.752 18.7511 242.092 18.7481 242.441 18.7449C242.884 18.7424 243.326 18.74 243.769 18.7377C244.105 18.7344 244.105 18.7344 244.448 18.731C244.661 18.7302 244.875 18.7293 245.094 18.7284C245.292 18.7271 245.489 18.7257 245.693 18.7243C246.158 18.7542 246.158 18.7542 246.422 19.0178C246.422 19.8008 246.422 20.5838 246.422 21.3906C244.769 21.3906 243.116 21.3906 241.413 21.3906C241.431 23.1408 241.454 24.891 241.482 26.6411C241.491 27.2367 241.498 27.8323 241.504 28.4279C241.513 29.2833 241.527 30.1384 241.541 30.9938C241.543 31.2607 241.545 31.5277 241.546 31.8027C241.554 32.1747 241.554 32.1747 241.562 32.5543C241.565 32.7726 241.568 32.991 241.571 33.216C241.702 33.9174 241.897 34.1523 242.467 34.5724C243.361 34.7161 243.361 34.7161 244.346 34.7372C246.136 34.8141 246.136 34.8141 246.422 35.0997C246.459 35.8038 246.433 36.5034 246.422 37.2088C245.374 37.9129 244.275 37.833 243.06 37.8349C242.856 37.8414 242.653 37.8479 242.442 37.8545C240.986 37.8618 239.65 37.6501 238.513 36.6815C237.297 35.0765 237.317 33.6812 237.355 31.7146C237.357 31.4188 237.358 31.123 237.36 30.8182C237.365 29.878 237.379 28.9381 237.392 27.998C237.397 27.3586 237.402 26.7193 237.407 26.0799C237.418 24.5167 237.436 22.9537 237.458 21.3906C236.327 21.3906 235.196 21.3906 234.031 21.3906C234.031 20.5206 234.031 19.6506 234.031 18.7542C235.249 18.7542 236.467 18.7542 237.722 18.7542C237.716 18.1941 237.711 17.6341 237.705 17.057C237.705 12.4561 237.705 12.4561 238.9 12.3919Z" fill="#710720"/>
<path fill-rule="evenodd" clip-rule="evenodd" d="M129.894 11.3723H126.203C126.197 14.4606 126.193 17.5489 126.19 20.6372L126.19 20.9949C126.189 22.4484 126.187 23.9019 126.185 25.3553C126.182 26.8979 126.179 28.4404 126.178 29.9829C126.178 30.5677 126.178 31.1525 126.177 31.7373C126.175 32.5832 126.173 33.4291 126.173 34.2751L126.173 35.0466L126.17 35.7833C126.17 35.9382 126.159 36.0978 126.148 36.2578C126.111 36.7977 126.074 37.3431 126.467 37.7361C126.558 37.7404 126.648 37.745 126.737 37.7496C127.36 37.7814 127.95 37.8116 128.576 37.7361C128.808 37.504 128.938 37.3741 129.024 37.2199C129.135 37.0237 129.176 36.7882 129.268 36.2531L129.367 35.3633C129.496 35.3516 129.573 35.3445 129.642 35.3657C129.747 35.3979 129.831 35.495 130.043 35.7392C130.591 36.257 131.148 36.7417 131.739 37.2088C133.595 38.3441 135.927 38.2706 137.999 37.8545C139.918 37.2238 141.188 35.9762 142.285 34.3088C143.87 31.0947 144.168 27.3816 143.157 23.9322C142.374 21.7843 141.141 19.9537 139.072 18.8695C136.985 18.076 134.859 18.3295 132.794 19.0178L129.894 20.8633V11.3723ZM139.385 24.5542C138.721 23.0505 138.059 21.7736 136.485 21.1269C136.398 21.1186 136.311 21.1099 136.222 21.1012C135.01 20.9814 133.661 20.8482 132.55 21.3615L132.003 21.6542C131.379 21.9283 130.882 22.2167 130.339 22.6316C129.619 23.6096 129.619 23.6096 129.67 26.3775C129.692 26.9742 129.713 27.5696 129.719 28.1667C129.723 29.0959 129.746 30.0241 129.771 30.953C129.954 32.4116 130.392 33.7351 131.575 34.6878C132.985 35.6709 134.569 35.5906 136.221 35.3633C137.519 34.8552 138.201 33.8891 138.912 32.7404C140.051 30.4349 140.104 27.0224 139.385 24.5542Z" fill="#6E021D"/>
<path d="M93.5117 11.3723C94.7297 11.3723 95.9477 11.3723 97.2026 11.3723C97.2087 14.7708 97.2134 18.1693 97.2163 21.5678C97.2177 23.1456 97.2196 24.7235 97.2225 26.3014C97.2254 27.8227 97.227 29.3441 97.2277 30.8655C97.2281 31.4473 97.2291 32.0291 97.2305 32.6109C97.2324 33.4228 97.2327 34.2347 97.2326 35.0466C97.2335 35.2897 97.2345 35.5328 97.2354 35.7833C97.2327 37.4424 97.2327 37.4424 96.939 37.7361C95.808 37.7361 94.677 37.7361 93.5117 37.7361C93.5117 29.036 93.5117 20.336 93.5117 11.3723Z" fill="#6D001B"/>
<path d="M283.858 18.4906C284.122 18.7542 284.122 18.7542 284.147 19.472C284.144 19.7626 284.141 20.0531 284.138 20.3525C284.136 20.6438 284.133 20.935 284.131 21.2351C284.128 21.4604 284.125 21.6857 284.122 21.9179C283.899 21.9216 283.676 21.9253 283.446 21.9292C281.672 22.0038 280.413 22.1358 278.978 23.2206C278.585 23.4997 278.585 23.4997 278.058 23.4997C277.585 24.3158 277.462 24.9162 277.451 25.8556C277.444 26.2422 277.444 26.2422 277.438 26.6365C277.435 26.9128 277.433 27.1891 277.431 27.4738C277.426 27.7584 277.422 28.043 277.417 28.3363C277.403 29.2451 277.393 30.1539 277.382 31.0628C277.371 31.9745 277.359 32.8861 277.345 33.7977C277.336 34.3652 277.329 34.9326 277.324 35.5001C277.32 35.7553 277.316 36.0105 277.313 36.2734C277.31 36.4991 277.308 36.7249 277.305 36.9574C277.267 37.4725 277.267 37.4725 277.003 37.7361C276.433 37.7622 275.861 37.7703 275.29 37.7691C274.977 37.7697 274.664 37.7704 274.342 37.7711C273.576 37.7361 273.576 37.7361 273.313 37.4725C273.286 36.8997 273.279 36.326 273.278 35.7526C273.278 35.573 273.277 35.3934 273.277 35.2084C273.276 34.6119 273.277 34.0155 273.277 33.419C273.277 33.0063 273.277 32.5935 273.277 32.1808C273.276 31.3147 273.277 30.4485 273.278 29.5824C273.28 28.4697 273.279 27.3571 273.277 26.2444C273.276 25.3918 273.277 24.5391 273.277 23.6865C273.277 23.2761 273.277 22.8658 273.277 22.4554C273.276 21.8828 273.277 21.3102 273.278 20.7377C273.279 20.4112 273.279 20.0847 273.279 19.7484C273.313 19.0178 273.313 19.0178 273.576 18.7542C274.153 18.7351 274.73 18.7321 275.306 18.7377C275.78 18.7413 275.78 18.7413 276.263 18.7449C276.507 18.748 276.752 18.7511 277.003 18.7542C277.003 19.7112 277.003 20.6682 277.003 21.6542C277.302 21.3769 277.602 21.0996 277.91 20.8139C279.723 19.2432 281.373 18.1023 283.858 18.4906Z" fill="#710821"/>
<path d="M206.86 18.7285C207.333 18.733 207.333 18.733 207.815 18.7377C208.289 18.7413 208.289 18.7413 208.772 18.7449C209.016 18.748 209.26 18.751 209.512 18.7542C209.518 21.1902 209.523 23.6262 209.526 26.0622C209.527 27.1932 209.529 28.3242 209.532 29.4553C209.535 30.5459 209.537 31.6364 209.537 32.727C209.538 33.144 209.539 33.561 209.54 33.978C209.542 34.5601 209.542 35.1422 209.542 35.7242C209.543 36.0562 209.543 36.3881 209.544 36.7301C209.512 37.4725 209.512 37.4725 209.249 37.7361C208.722 37.7621 208.194 37.7703 207.667 37.769C207.379 37.7697 207.09 37.7704 206.793 37.7711C206.085 37.7361 206.085 37.7361 205.821 37.4725C205.795 36.8997 205.788 36.326 205.787 35.7526C205.787 35.573 205.786 35.3934 205.786 35.2083C205.785 34.6119 205.785 34.0155 205.786 33.419C205.786 33.0063 205.786 32.5935 205.786 32.1808C205.785 31.3146 205.786 30.4485 205.787 29.5824C205.788 28.4697 205.788 27.3571 205.786 26.2444C205.785 25.3918 205.785 24.5391 205.786 23.6865C205.786 23.2761 205.786 22.8658 205.785 22.4554C205.785 21.8828 205.786 21.3102 205.787 20.7377C205.787 20.4112 205.788 20.0847 205.788 19.7484C205.834 18.7402 205.845 18.7622 206.86 18.7285Z" fill="#6E021C"/>
<path fill-rule="evenodd" clip-rule="evenodd" d="M268.04 25.8724C267.651 23.6474 266.629 21.539 264.827 20.1218C260.105 17.1462 254.984 18.1032 251.645 22.3957C250.047 25.2062 249.761 27.742 250.237 30.9227C250.798 33.3126 251.992 35.2276 254.039 36.6064L254.594 36.9452C255.133 37.2916 255.648 37.5711 256.239 37.8195C258.498 38.3786 261.677 38.3348 263.789 37.3242C265.502 36.4216 266.878 35.096 267.513 33.2543C266.906 32.9045 266.341 32.693 265.667 32.4963C265.248 32.4788 265.051 32.4706 264.879 32.5331C264.728 32.5885 264.597 32.6993 264.349 32.9082C263.351 34.0624 262.136 34.7521 260.658 35.0997C259.007 35.2104 257.748 35.1298 256.341 34.1554C255.341 33.283 254.443 32.1545 254.242 30.8201L254.179 30.1778C254.141 29.7973 254.103 29.4168 254.067 29.0361C255.687 29.0416 257.307 29.046 258.927 29.0489C259.587 29.05 260.246 29.0512 260.905 29.0525C261.88 29.0559 262.855 29.0592 263.831 29.0607L264.752 29.0618L265.656 29.0659L266.488 29.066L267.224 29.0678C267.548 29.0492 267.682 29.0415 267.79 28.9851C267.867 28.9453 267.931 28.8814 268.04 28.7724C268.131 27.8017 268.107 26.8443 268.04 25.8724ZM264.213 24.8014C263.711 23.4763 263.245 22.3572 261.973 21.6037C259.824 20.5568 258.112 20.5495 256.16 21.9837C254.516 23.4412 254.322 24.3726 254.067 26.6633H264.349C264.349 25.7417 264.349 25.4644 264.302 25.1952C264.282 25.0793 264.254 24.9649 264.213 24.8014Z" fill="#6F051F"/>
<path fill-rule="evenodd" clip-rule="evenodd" d="M200.285 25.0815C199.595 23.0122 198.652 21.1129 196.858 19.8087C192.46 17.1596 186.953 18.1069 184.024 22.405L183.676 22.9724L183.344 23.4986C182.186 25.7706 182.09 29.4857 182.866 31.9103L183.149 32.4633C183.433 33.2232 183.755 33.8939 184.203 34.5724C185.96 36.5285 187.781 37.86 190.438 38.079C193.678 38.1405 196.247 37.7772 198.67 35.5116C199.359 34.797 199.727 34.2827 199.758 33.2542C198.968 32.8153 198.297 32.4633 197.385 32.4633L196.677 33.1719C195.69 34.2572 194.571 34.7244 193.167 35.0997C191.596 35.3274 190.331 35.1281 188.949 34.3088C188.034 33.3027 187.555 32.7747 187.255 32.1591C186.923 31.4791 186.811 30.6922 186.576 29.0361H200.285V25.0815ZM196.449 23.9066C196.267 23.3731 195.805 22.935 194.353 21.5553C192.292 20.5984 189.755 20.7949 188.025 22.2917C186.732 23.6589 186.576 24.7845 186.576 26.6633H196.594V24.8179C196.558 24.4238 196.534 24.1549 196.449 23.9066Z" fill="#70061F"/>
<path d="M205.821 11.3723C207.126 11.3723 208.431 11.3723 209.776 11.3723C209.787 12.014 209.798 12.6556 209.809 13.3167C209.814 13.5183 209.818 13.72 209.823 13.9277C209.827 14.3944 209.802 14.861 209.776 15.3269C209.249 15.8542 209.249 15.8542 208.514 15.9149C208.229 15.9112 207.944 15.9075 207.65 15.9036C207.222 15.9011 207.222 15.9011 206.784 15.8985C206.085 15.8542 206.085 15.8542 205.821 15.5905C205.802 14.8796 205.797 14.1756 205.805 13.465C205.806 13.265 205.807 13.065 205.808 12.8589C205.812 12.3634 205.816 11.8679 205.821 11.3723Z" fill="#700620"/>
</svg>
